<?xml version="1.0" encoding="UTF-8"?>
<svg version="1.1" xmlns="http://www.w3.org/2000/svg" width="280" height="280">
<path d="M0 0 C1.24620117 -0.04350586 1.24620117 -0.04350586 2.51757812 -0.08789062 C13.7616167 -0.1999002 23.58653642 4.57523993 33.5 9.4375 C34.48081543 9.91396973 35.46163086 10.39043945 36.47216797 10.88134766 C39.4673026 12.34530253 42.45401277 13.82496545 45.4375 15.3125 C46.36836426 15.77591797 47.29922852 16.23933594 48.25830078 16.71679688 C50.867639 18.0254558 53.46701769 19.35160125 56.0625 20.6875 C57.22471069 21.2755542 57.22471069 21.2755542 58.41040039 21.87548828 C64.5772542 25.10630128 69.23844918 28.43746531 71.4375 35.3125 C71.66323914 37.72908411 71.79165225 40.15566613 71.8515625 42.58203125 C71.88061172 43.60353523 71.88061172 43.60353523 71.9102478 44.64567566 C71.96968132 46.80532593 72.016282 48.96503057 72.0625 51.125 C72.10071328 52.59572544 72.13976694 54.06642929 72.1796875 55.53710938 C72.27535183 59.12870789 72.35951575 62.72046913 72.4375 66.3125 C79.69319514 69.97686755 86.94685571 73.62607995 94.3046875 77.08203125 C95.30943115 77.55535889 96.3141748 78.02868652 97.34936523 78.51635742 C99.32259064 79.44318265 101.29855544 80.36420452 103.27758789 81.27856445 C119.69577324 89.0023379 119.69577324 89.0023379 124.4375 96.3125 C125.53823729 99.61471188 125.6441882 102.24056734 125.75390625 105.71875 C125.79612305 107.01184082 125.83833984 108.30493164 125.88183594 109.63720703 C125.92184542 111.02895363 125.96122183 112.42071855 126 113.8125 C126.02018188 114.5100238 126.04036377 115.20754761 126.06115723 115.9262085 C126.19892293 120.72136613 126.31957337 125.51681705 126.4375 130.3125 C126.46763184 131.38145508 126.49776367 132.45041016 126.52880859 133.55175781 C126.59921062 136.18039904 126.64872416 138.80823045 126.6875 141.4375 C126.7088501 142.18064453 126.7302002 142.92378906 126.75219727 143.68945312 C126.78093794 148.11656277 126.20660315 150.83306169 123.4375 154.3125 C118.99630201 158.54140363 113.45477736 161.23921706 108.125 164.1875 C98.6279211 169.48938197 89.21204665 174.91218739 79.86010742 180.46630859 C62.62656474 190.61742985 47.4207112 196.50346546 27.25 192.3125 C20.02168781 190.22035477 13.78682871 186.2348072 7.4375 182.3125 C5.79248394 181.33196093 4.14672883 180.3526599 2.5 179.375 C1.71625 178.900625 0.9325 178.42625 0.125 177.9375 C-1.95426752 176.68026848 -4.03761868 175.43113982 -6.125 174.1875 C-9.33811475 172.27254738 -12.54311008 170.34457668 -15.74365234 168.40869141 C-17.44545388 167.38304189 -19.1541301 166.36882346 -20.86328125 165.35546875 C-22.32314453 164.46794922 -22.32314453 164.46794922 -23.8125 163.5625 C-24.66328125 163.05203125 -25.5140625 162.5415625 -26.390625 162.015625 C-29.00112555 159.96854183 -30.10024867 158.29561665 -31.5625 155.3125 C-31.90307617 152.08276367 -31.90307617 152.08276367 -31.85546875 148.48046875 C-31.8409668 146.54204102 -31.8409668 146.54204102 -31.82617188 144.56445312 C-31.80110985 143.2096293 -31.77571506 141.85481159 -31.75 140.5 C-31.73494013 139.12566555 -31.72125401 137.75131532 -31.70898438 136.37695312 C-31.67366628 133.02173368 -31.62433851 129.66731834 -31.5625 126.3125 C-32.6306897 125.73242188 -32.6306897 125.73242188 -33.72045898 125.140625 C-44.80965421 119.10741585 -55.79367426 112.90350399 -66.5625 106.3125 C-67.52784668 105.72734619 -67.52784668 105.72734619 -68.51269531 105.13037109 C-70.70030139 103.80221716 -72.88184203 102.46452632 -75.0625 101.125 C-75.77003418 100.69654785 -76.47756836 100.2680957 -77.20654297 99.82666016 C-77.87057129 99.41593262 -78.53459961 99.00520508 -79.21875 98.58203125 C-79.81494141 98.21698486 -80.41113281 97.85193848 -81.02539062 97.47583008 C-82.5625 96.3125 -82.5625 96.3125 -84.5625 93.3125 C-84.80541992 90.81079102 -84.80541992 90.81079102 -84.79296875 87.81640625 C-84.79192139 86.70958496 -84.79087402 85.60276367 -84.78979492 84.46240234 C-84.7766626 83.27855957 -84.76353027 82.0947168 -84.75 80.875 C-84.74137939 79.66537598 -84.73275879 78.45575195 -84.72387695 77.20947266 C-84.6516457 69.86709323 -84.53229414 62.52501434 -84.25 55.1875 C-84.22768311 54.4147876 -84.20536621 53.6420752 -84.18237305 52.84594727 C-83.85180719 46.03390288 -82.91114102 39.07699946 -77.734375 34.203125 C-72.25989067 30.03563798 -65.94284308 27.13109566 -59.8125 24.0625 C-58.50940974 23.40157497 -57.2068419 22.73961895 -55.90478516 22.07666016 C-53.95384243 21.08355732 -52.00256531 20.09119022 -50.04934692 19.10256958 C-44.64235018 16.36501774 -39.28549518 13.53847364 -33.9375 10.6875 C-22.42730297 4.5981314 -13.15407551 0.14824277 0 0 Z M-33.73828125 23.75390625 C-38.27345791 26.1915751 -42.88835786 28.4060937 -47.5625 30.5625 C-49.60683156 31.51782597 -51.64992946 32.47572444 -53.69238281 33.43505859 C-55.44697087 34.25829482 -57.20387548 35.07658859 -58.9609375 35.89453125 C-64.93783393 38.78797245 -64.93783393 38.78797245 -68.9375 43.875 C-69.84647114 47.19172117 -69.84647114 47.19172117 -68.64453125 49.7265625 C-65.66278215 53.4299732 -62.091897 55.04601417 -57.875 57.125 C-57.0279248 57.55441895 -56.18084961 57.98383789 -55.30810547 58.42626953 C-53.56808557 59.30653788 -51.82522657 60.18121642 -50.07958984 61.05029297 C-47.77377392 62.20655566 -45.48807988 63.39346125 -43.20703125 64.59765625 C-29.76607395 71.63700736 -16.80358184 77.22320677 -1.578125 72.73046875 C5.82601485 70.37850399 12.42632568 66.89658697 19.1875 63.125 C20.41470989 62.45160497 21.64258218 61.7794158 22.87109375 61.10839844 C25.2870231 59.78788377 27.70008929 58.46235804 30.11132812 57.13330078 C35.19014022 54.35307614 40.32072271 51.6738363 45.46386719 49.01489258 C51.57582502 46.1307633 51.57582502 46.1307633 55.3125 40.9375 C55.46967394 37.63684716 55.08825822 36.20098833 53.4375 33.3125 C50.87204599 31.6645722 48.48439859 30.33398323 45.75390625 29.02734375 C44.98376694 28.64437637 44.21362762 28.261409 43.42015076 27.86683655 C41.78714278 27.05856051 40.15030207 26.25798877 38.51000977 25.46459961 C36.03262577 24.26578769 33.56745668 23.04452396 31.10351562 21.81835938 C5.56405809 9.20029586 -8.77241883 10.2527526 -33.73828125 23.75390625 Z M23.25 85.6875 C22.13028809 86.30238281 21.01057617 86.91726562 19.85693359 87.55078125 C17.53549288 88.82860256 15.21649082 90.11086384 12.89990234 91.39746094 C9.53476857 93.25870119 6.15445956 95.08912714 2.76953125 96.9140625 C0.69989781 98.04573634 -1.36913981 99.17850071 -3.4375 100.3125 C-4.88032349 101.084729 -4.88032349 101.084729 -6.35229492 101.87255859 C-13.37402335 105.7514148 -13.37402335 105.7514148 -17.5625 112.3125 C-17.10018026 116.62594313 -16.47337843 118.57491762 -13.078125 121.32421875 C-12.00046875 121.87722656 -10.9228125 122.43023437 -9.8125 123 C-8.55198473 123.66517777 -7.2915756 124.33055668 -6.03125 124.99609375 C-5.32871094 125.35687012 -4.62617187 125.71764648 -3.90234375 126.08935547 C-1.27302063 127.46382426 1.31627059 128.90044688 3.90625 130.34765625 C5.8331415 131.41961573 7.76022473 132.49123065 9.6875 133.5625 C10.59725586 134.06998779 11.50701172 134.57747559 12.44433594 135.1003418 C21.52887663 140.07940054 29.47262351 144.05935329 40 143.8125 C40.83063965 143.80114014 41.6612793 143.78978027 42.51708984 143.77807617 C48.61113836 143.58422373 53.23729477 142.6030863 58.4375 139.3125 C59.85371143 138.56164073 61.27040115 137.81168308 62.6875 137.0625 C66.45623304 134.92863547 70.13283594 132.65847947 73.8125 130.375 C77.7603221 127.92588814 81.71747152 125.56876526 85.8125 123.375 C90.40814799 120.90094171 94.93828702 118.33190676 99.4375 115.6875 C100.08509277 115.3150415 100.73268555 114.94258301 101.39990234 114.55883789 C104.80007743 112.54107762 107.45697961 110.78373466 109.4375 107.3125 C109.96459603 103.77342665 109.83669267 101.9821484 107.99609375 98.89453125 C104.47729707 95.34350132 100.6336378 93.8378511 96.0625 91.9375 C94.25017128 91.15757033 92.43897567 90.37500255 90.62890625 89.58984375 C89.74219238 89.20683105 88.85547852 88.82381836 87.94189453 88.42919922 C84.55073068 86.91709321 81.2885703 85.22399683 78 83.5 C57.80242319 73.33025992 42.55161272 74.96989499 23.25 85.6875 Z " fill="#000000" transform="translate(119.5625,43.6875)"/>
</svg>
