<?xml version="1.0" encoding="UTF-8"?>
<svg version="1.1" xmlns="http://www.w3.org/2000/svg" width="3333" height="3333">
<path d="M0 0 C1.9606081 -0.00124357 3.92121596 -0.00292478 5.88182335 -0.00500236 C11.2881872 -0.00945577 16.69453394 -0.00767273 22.10089825 -0.00490058 C27.99749551 -0.00297967 33.89408943 -0.00685931 39.79068577 -0.00999737 C50.1713538 -0.01471507 60.55201815 -0.01572733 70.93268688 -0.01426902 C82.13126706 -0.01271488 93.32984399 -0.01334918 104.52842383 -0.01661023 C105.59331983 -0.01691818 105.59331983 -0.01691818 106.67972889 -0.01723235 C110.30452824 -0.01828987 113.92932758 -0.01938136 117.55412692 -0.0204838 C144.03736968 -0.02845973 170.52061125 -0.03145414 197.00385511 -0.03192973 C223.85197996 -0.03242415 250.70010331 -0.03506839 277.54822767 -0.04033732 C279.25946087 -0.04067086 280.97069407 -0.04100433 282.68192726 -0.04133773 C289.58155063 -0.04268583 296.48117398 -0.04404913 303.38079734 -0.04542983 C379.2856327 -0.06059784 455.19046768 -0.06737289 531.09530432 -0.0718518 C532.05546554 -0.07190849 533.01562676 -0.07196518 534.00488378 -0.07202359 C538.86158747 -0.07231011 543.71829116 -0.07259514 548.57499486 -0.0728777 C589.26422932 -0.07525276 629.95346361 -0.07896243 670.64269795 -0.0829148 C690.12820626 -0.08480738 709.61371458 -0.08663588 729.0992229 -0.088449 C730.06832261 -0.08853919 731.03742233 -0.08862938 732.03588871 -0.0887223 C778.67782158 -0.09305857 825.31975449 -0.09698689 871.96168745 -0.10044932 C873.45412839 -0.10056013 873.45412839 -0.10056013 874.97671965 -0.10067318 C938.38655416 -0.10536826 1001.79638861 -0.10819121 1065.20622326 -0.1098361 C1070.40515591 -0.10997168 1075.60408857 -0.11011071 1080.80302123 -0.11024964 C1089.13818261 -0.11047212 1097.47334399 -0.11069349 1105.80850538 -0.11091352 C1106.84137468 -0.11094079 1107.87424399 -0.11096806 1108.93841236 -0.11099616 C1111.02592465 -0.11105127 1113.11343694 -0.11110639 1115.20094923 -0.11116149 C1129.84427215 -0.11154811 1144.48759507 -0.11193605 1159.13091799 -0.11233062 C1164.37060446 -0.11247173 1169.61029093 -0.11261181 1174.8499774 -0.11274952 C1273.80757237 -0.11535366 1372.76516578 -0.12068326 1471.7227596 -0.13663173 C1473.28530977 -0.13688342 1473.28530977 -0.13688342 1474.87942661 -0.13714019 C1507.42667127 -0.14239088 1539.97391588 -0.14796524 1572.52116048 -0.1535995 C1605.91698172 -0.15938049 1639.31280295 -0.16511105 1672.70862424 -0.17055583 C1673.73690517 -0.17072364 1674.76518609 -0.17089144 1675.82462705 -0.17106434 C1740.22667258 -0.18155783 1804.62871767 -0.18841921 1869.03076398 -0.19142222 C1870.52285344 -0.19149244 1870.52285344 -0.19149244 1872.04508612 -0.19156408 C1915.73183529 -0.19361476 1959.41858444 -0.19485882 2003.10533364 -0.19521013 C2020.68086239 -0.1953534 2038.25639113 -0.19559206 2055.83191987 -0.19587419 C2058.74602463 -0.19591972 2061.6601294 -0.19596137 2064.57423417 -0.1960023 C2109.14443465 -0.19664835 2153.71463334 -0.19960499 2198.28483284 -0.20946288 C2199.24587735 -0.20967525 2200.20692186 -0.20988762 2201.19708893 -0.21010643 C2216.65651729 -0.21353518 2232.11594561 -0.21714816 2247.57537393 -0.22078283 C2291.46787247 -0.2310974 2335.36036881 -0.2398772 2379.25286877 -0.23793817 C2380.14371918 -0.23789943 2381.0345696 -0.23786069 2381.95241548 -0.23782078 C2401.38922223 -0.23694415 2420.82602882 -0.23523197 2440.26283542 -0.23270115 C2448.01512787 -0.23170441 2455.76742034 -0.23081776 2463.51971281 -0.22996593 C2464.78816881 -0.22982209 2464.78816881 -0.22982209 2466.08225019 -0.22967536 C2492.88936274 -0.22668794 2519.69646249 -0.23291372 2546.50357242 -0.24448479 C2572.90779424 -0.25584346 2599.31199893 -0.25807298 2625.71622146 -0.24707929 C2629.33665596 -0.24557324 2632.9570905 -0.24417192 2636.57752506 -0.24283347 C2637.64063807 -0.2424344 2637.64063807 -0.2424344 2638.7252281 -0.24202727 C2649.87706927 -0.23811361 2661.02888103 -0.24417943 2672.1807171 -0.25457332 C2683.10562491 -0.26455006 2694.03049387 -0.26354026 2704.95540095 -0.25172237 C2710.76569121 -0.24574151 2716.57587588 -0.2443587 2722.38615912 -0.25640723 C2766.58899215 -0.34220132 2766.58899215 -0.34220132 2785.95377767 3.1276505 C2787.20884909 3.3365581 2788.4639205 3.54546571 2789.75702439 3.76070385 C2792.50834336 4.23461238 2795.22702752 4.77971296 2797.95377767 5.3776505 C2799.41231161 5.69125524 2799.41231161 5.69125524 2800.90031087 6.01119542 C2851.74563295 17.29519217 2899.09116383 40.87676052 2937.62565267 76.0182755 C2939.68530801 77.88440617 2941.77766662 79.69834838 2943.89127767 81.5026505 C2951.8301144 88.42904449 2959.20538296 96.04294 2965.95377767 104.1276505 C2966.38319662 104.62732335 2966.81261556 105.1269962 2967.2550472 105.64181066 C2982.01797025 122.84619862 2994.64381522 141.94218107 3004.95377767 162.1276505 C3005.39528158 162.98616612 3005.83678548 163.84468175 3006.2916683 164.729213 C3022.5652629 196.68463514 3032.24504821 230.65023914 3036.95377767 266.1276505 C3037.03935439 266.74059722 3037.12493111 267.35354394 3037.21310107 267.9850648 C3038.30146897 277.01319272 3038.0926798 286.09672643 3038.08142817 295.17387283 C3038.08267174 297.13448093 3038.08435295 299.09508879 3038.08643053 301.05569618 C3038.09088394 306.46206003 3038.0891009 311.86840677 3038.08632875 317.27477108 C3038.08440784 323.17136834 3038.08828748 329.06796226 3038.09142554 334.9645586 C3038.09614324 345.34522663 3038.0971555 355.72589097 3038.09569719 366.10655971 C3038.09414305 377.30513989 3038.09477735 388.50371682 3038.09803841 399.70229666 C3038.09834635 400.76719266 3038.09834635 400.76719266 3038.09866052 401.85360171 C3038.09971804 405.47840107 3038.10080953 409.10320041 3038.10191197 412.72799975 C3038.1098879 439.21124251 3038.11288231 465.69448408 3038.1133579 492.17772794 C3038.11385232 519.02585279 3038.11649656 545.87397614 3038.12176549 572.7221005 C3038.12209904 574.4333337 3038.1224325 576.14456689 3038.1227659 577.85580009 C3038.124114 584.75542345 3038.1254773 591.65504681 3038.126858 598.55467017 C3038.14202601 674.45950553 3038.14880106 750.36434051 3038.15327997 826.26917715 C3038.15333666 827.22933837 3038.15339335 828.18949959 3038.15345176 829.1787566 C3038.15373828 834.0354603 3038.15402331 838.89216399 3038.15430587 843.74886769 C3038.15668093 884.43810215 3038.1603906 925.12733644 3038.16434297 965.81657077 C3038.16623555 985.30207909 3038.16806405 1004.78758741 3038.16987717 1024.27309573 C3038.16996736 1025.24219544 3038.17005755 1026.21129516 3038.17015047 1027.20976153 C3038.17448674 1073.85169441 3038.17841506 1120.49362732 3038.18187749 1167.13556027 C3038.18195137 1168.1305209 3038.18202524 1169.12548153 3038.18210135 1170.15059248 C3038.18679643 1233.56042698 3038.18961938 1296.97026143 3038.19126427 1360.38009608 C3038.19139985 1365.57902874 3038.19153888 1370.7779614 3038.19167781 1375.97689405 C3038.19190029 1384.31205544 3038.19212166 1392.64721682 3038.19234169 1400.9823782 C3038.19236896 1402.01524751 3038.19239624 1403.04811682 3038.19242433 1404.11228519 C3038.19247945 1406.19979748 3038.19253456 1408.28730977 3038.19258966 1410.37482206 C3038.19297628 1425.01814498 3038.19336422 1439.6614679 3038.19375879 1454.30479082 C3038.1938999 1459.54447729 3038.19403998 1464.78416376 3038.19417769 1470.02385023 C3038.19678183 1568.9814452 3038.20211143 1667.9390386 3038.2180599 1766.89663243 C3038.21822769 1767.93833254 3038.21839548 1768.98003266 3038.21856836 1770.05329944 C3038.22381905 1802.6005441 3038.22939341 1835.14778871 3038.23502767 1867.69503331 C3038.24080866 1901.09085454 3038.24653922 1934.48667578 3038.251984 1967.88249707 C3038.25223571 1969.42491846 3038.25223571 1969.42491846 3038.25249251 1970.99849988 C3038.262986 2035.4005454 3038.26984738 2099.8025905 3038.27285039 2164.20463681 C3038.27289721 2165.19936312 3038.27294402 2166.19408942 3038.27299225 2167.21895895 C3038.27504293 2210.90570811 3038.27628699 2254.59245727 3038.2766383 2298.27920647 C3038.27678157 2315.85473522 3038.27702023 2333.43026396 3038.27730236 2351.0057927 C3038.27734789 2353.91989746 3038.27738954 2356.83400223 3038.27743047 2359.74810699 C3038.27807652 2404.31830748 3038.28103316 2448.88850617 3038.29089105 2493.45870566 C3038.29120961 2494.90027243 3038.29120961 2494.90027243 3038.2915346 2496.37096176 C3038.29496335 2511.83039012 3038.29857633 2527.28981844 3038.302211 2542.74924676 C3038.31252557 2586.6417453 3038.32130537 2630.53424164 3038.31936634 2674.4267416 C3038.31930823 2675.76301722 3038.31930823 2675.76301722 3038.31924895 2677.1262883 C3038.31837232 2696.56309506 3038.31666014 2715.99990165 3038.31412932 2735.43670825 C3038.31313258 2743.1890007 3038.31224593 2750.94129317 3038.3113941 2758.69358563 C3038.31129821 2759.53922297 3038.31120232 2760.38486031 3038.31110353 2761.25612302 C3038.30811611 2788.06323557 3038.31434189 2814.87033532 3038.32591296 2841.67744525 C3038.33727163 2868.08166706 3038.33950115 2894.48587176 3038.32850746 2920.89009429 C3038.32700141 2924.51052879 3038.32560009 2928.13096333 3038.32426164 2931.75139789 C3038.32399559 2932.46013989 3038.32372954 2933.16888189 3038.32345544 2933.89910093 C3038.31954178 2945.0509421 3038.3256076 2956.20275386 3038.33600149 2967.35458993 C3038.34597823 2978.27949773 3038.34496843 2989.2043667 3038.33315054 3000.12927378 C3038.32716968 3005.93956404 3038.32578687 3011.74974871 3038.3378354 3017.56003195 C3038.42362949 3061.76286497 3038.42362949 3061.76286497 3034.95377767 3081.1276505 C3034.74487007 3082.38272192 3034.53596246 3083.63779333 3034.32072432 3084.93089721 C3033.84681579 3087.68221619 3033.30171521 3090.40090035 3032.70377767 3093.1276505 C3032.49470785 3094.10000646 3032.28563802 3095.07236241 3032.07023275 3096.0741837 C3020.786236 3146.91950578 2997.20466765 3194.26503666 2962.06315267 3232.7995255 C2960.197022 3234.85918083 2958.38307979 3236.95153944 2956.57877767 3239.0651505 C2949.65238368 3247.00398723 2942.03848817 3254.37925579 2933.95377767 3261.1276505 C2933.45410482 3261.55706944 2932.95443197 3261.98648839 2932.43961751 3262.42892003 C2915.23522955 3277.19184307 2896.1392471 3289.81768805 2875.95377767 3300.1276505 C2875.09526205 3300.56915441 2874.23674642 3301.01065831 2873.35221517 3301.46554112 C2841.39679303 3317.73913573 2807.43118903 3327.41892104 2771.95377767 3332.1276505 C2771.34083095 3332.21322722 2770.72788423 3332.29880394 2770.09636337 3332.3869739 C2761.06823545 3333.4753418 2751.98470174 3333.26655263 2742.90755534 3333.255301 C2740.94694724 3333.25654457 2738.98633938 3333.25822578 2737.02573199 3333.26030336 C2731.61936814 3333.26475677 2726.21302141 3333.26297373 2720.80665709 3333.26020158 C2714.91005983 3333.25828067 2709.01346591 3333.26216031 2703.11686957 3333.26529837 C2692.73620154 3333.27001607 2682.3555372 3333.27102832 2671.97486846 3333.26957002 C2660.77628829 3333.26801588 2649.57771135 3333.26865018 2638.37913151 3333.27191123 C2637.31423551 3333.27221918 2637.31423551 3333.27221918 2636.22782646 3333.27253335 C2632.6030271 3333.27359087 2628.97822776 3333.27468235 2625.35342842 3333.2757848 C2598.87018566 3333.28376073 2572.38694409 3333.28675513 2545.90370023 3333.28723073 C2519.05557538 3333.28772515 2492.20745203 3333.29036939 2465.35932767 3333.29563832 C2463.64809447 3333.29597186 2461.93686128 3333.29630533 2460.22562808 3333.29663873 C2453.32600472 3333.29798683 2446.42638136 3333.29935013 2439.526758 3333.30073083 C2363.62192264 3333.31589884 2287.71708766 3333.32267389 2211.81225102 3333.3271528 C2210.8520898 3333.32720949 2209.89192858 3333.32726618 2208.90267157 3333.32732458 C2204.04596787 3333.32761111 2199.18926418 3333.32789614 2194.33256048 3333.3281787 C2153.64332602 3333.33055376 2112.95409173 3333.33426343 2072.2648574 3333.3382158 C2052.77934908 3333.34010838 2033.29384076 3333.34193688 2013.80833244 3333.34375 C2012.83923273 3333.34384019 2011.87013301 3333.34393038 2010.87166664 3333.3440233 C1964.22973376 3333.34835957 1917.58780085 3333.35228789 1870.9458679 3333.35575032 C1869.95090727 3333.35582419 1868.95594664 3333.35589807 1867.93083569 3333.35597418 C1804.52100119 3333.36066926 1741.11116674 3333.36349221 1677.70133209 3333.3651371 C1672.50239943 3333.36527268 1667.30346677 3333.36541171 1662.10453412 3333.36555064 C1653.76937273 3333.36577312 1645.43421135 3333.36599449 1637.09904997 3333.36621452 C1636.06618066 3333.36624179 1635.03331135 3333.36626906 1633.96914298 3333.36629716 C1631.88163069 3333.36635227 1629.7941184 3333.36640738 1627.70660611 3333.36646249 C1613.06328319 3333.36684911 1598.41996027 3333.36723705 1583.77663735 3333.36763162 C1578.53695088 3333.36777273 1573.29726441 3333.3679128 1568.05757794 3333.36805052 C1469.09998297 3333.37065466 1370.14238957 3333.37598426 1271.18479574 3333.39193273 C1270.14309563 3333.39210052 1269.10139551 3333.39226831 1268.02812873 3333.39244119 C1235.48088407 3333.39769188 1202.93363946 3333.40326624 1170.38639486 3333.4089005 C1136.99057363 3333.41468149 1103.59475239 3333.42041205 1070.1989311 3333.42585683 C1069.17065017 3333.42602464 1068.14236925 3333.42619244 1067.0829283 3333.42636534 C1002.68088277 3333.43685883 938.27883767 3333.44372021 873.87679136 3333.44672322 C872.3847019 3333.44679344 872.3847019 3333.44679344 870.86246922 3333.44686508 C827.17572006 3333.44891576 783.4889709 3333.45015982 739.8022217 3333.45051113 C722.22669295 3333.4506544 704.65116421 3333.45089306 687.07563547 3333.45117519 C684.16153071 3333.45122072 681.24742594 3333.45126237 678.33332118 3333.4513033 C633.76312069 3333.45194934 589.192922 3333.45490599 544.62272251 3333.46476388 C543.18115574 3333.46508244 543.18115574 3333.46508244 541.71046641 3333.46540743 C526.25103805 3333.46883618 510.79160973 3333.47244915 495.33218141 3333.47608383 C451.43968287 3333.48639839 407.54718653 3333.4951782 363.65468657 3333.49323916 C362.76383616 3333.49320043 361.87298575 3333.49316169 360.95513987 3333.49312177 C341.51833311 3333.49224515 322.08152652 3333.49053297 302.64471992 3333.48800215 C294.89242747 3333.48700541 287.140135 3333.48611875 279.38784254 3333.48526692 C278.5422052 3333.48517104 277.69656786 3333.48507515 276.82530515 3333.48497636 C250.0181926 3333.48198894 223.21109285 3333.48821472 196.40398292 3333.49978579 C169.99976111 3333.51114446 143.59555641 3333.51337397 117.19133388 3333.50238028 C113.57089938 3333.50087424 109.95046484 3333.49947291 106.33003028 3333.49813446 C105.62128828 3333.49786842 104.91254628 3333.49760237 104.18232724 3333.49732827 C93.03048607 3333.49341461 81.87867431 3333.49948043 70.72683824 3333.50987432 C59.80193044 3333.51985106 48.87706147 3333.51884126 37.95215439 3333.50702337 C32.14186413 3333.50104251 26.33167946 3333.4996597 20.52139622 3333.51170823 C-23.6814368 3333.59750232 -23.6814368 3333.59750232 -43.04622233 3330.1276505 C-44.30129374 3329.91874289 -45.55636516 3329.70983529 -46.84946904 3329.49459715 C-49.60078802 3329.02068862 -52.31947218 3328.47558804 -55.04622233 3327.8776505 C-56.01857829 3327.66858068 -56.99093424 3327.45951085 -57.99275553 3327.24410558 C-108.83807761 3315.96010883 -156.18360849 3292.37854048 -194.71809733 3257.2370255 C-196.77775266 3255.37089483 -198.87011127 3253.55695262 -200.98372233 3251.7526505 C-208.92255906 3244.82625651 -216.29782762 3237.212361 -223.04622233 3229.1276505 C-223.69035075 3228.37814122 -223.69035075 3228.37814122 -224.34749186 3227.61349034 C-239.1104149 3210.40910238 -251.73625988 3191.31311993 -262.04622233 3171.1276505 C-262.70847819 3169.83987706 -262.70847819 3169.83987706 -263.38411295 3168.526088 C-279.65770756 3136.57066586 -289.33749287 3102.60506185 -294.04622233 3067.1276505 C-294.13179905 3066.51470378 -294.21737577 3065.90175706 -294.30554573 3065.2702362 C-295.39391363 3056.24210827 -295.18512446 3047.15857457 -295.17387283 3038.08142817 C-295.1751164 3036.12082007 -295.17679761 3034.16021221 -295.17887519 3032.19960482 C-295.18332859 3026.79324097 -295.18154556 3021.38689423 -295.17877341 3015.98052992 C-295.1768525 3010.08393266 -295.18073214 3004.18733874 -295.1838702 2998.2907424 C-295.1885879 2987.91007437 -295.18960015 2977.52941002 -295.18814185 2967.14874129 C-295.18658771 2955.95016111 -295.18722201 2944.75158418 -295.19048306 2933.55300434 C-295.19068836 2932.84307367 -295.19089366 2932.133143 -295.19110518 2931.40169928 C-295.1921627 2927.77689993 -295.19325418 2924.15210059 -295.19435663 2920.52730125 C-295.20233256 2894.04405849 -295.20532696 2867.56081692 -295.20580256 2841.07757306 C-295.20629698 2814.22944821 -295.20894122 2787.38132486 -295.21421015 2760.5332005 C-295.21454369 2758.8219673 -295.21487716 2757.1107341 -295.21521056 2755.39950091 C-295.21655866 2748.49987754 -295.21792196 2741.60025419 -295.21930266 2734.70063083 C-295.23447067 2658.79579547 -295.24124572 2582.89096049 -295.24572463 2506.98612385 C-295.24578132 2506.02596263 -295.24583801 2505.06580141 -295.24589641 2504.07654439 C-295.24618294 2499.2198407 -295.24646797 2494.36313701 -295.24675053 2489.50643331 C-295.24912559 2448.81719885 -295.25283525 2408.12796456 -295.25678763 2367.43873022 C-295.25868021 2347.95322191 -295.26050871 2328.46771359 -295.26232183 2308.98220527 C-295.26241202 2308.01310556 -295.26250221 2307.04400584 -295.26259513 2306.04553947 C-295.2669314 2259.40360659 -295.27085972 2212.76167368 -295.27432215 2166.11974072 C-295.27439602 2165.1247801 -295.2744699 2164.12981947 -295.27454601 2163.10470852 C-295.27924109 2099.69487401 -295.28206404 2036.28503956 -295.28370893 1972.87520491 C-295.28384451 1967.67627226 -295.28398354 1962.4773396 -295.28412247 1957.27840695 C-295.28434495 1948.94324556 -295.28456632 1940.60808418 -295.28478635 1932.27292279 C-295.28481362 1931.24005349 -295.28484089 1930.20718418 -295.28486899 1929.14301581 C-295.2849241 1927.05550352 -295.28497921 1924.96799123 -295.28503432 1922.88047894 C-295.28542094 1908.23715602 -295.28580888 1893.5938331 -295.28620345 1878.95051018 C-295.28634456 1873.71082371 -295.28648463 1868.47113724 -295.28662235 1863.23145077 C-295.28922649 1764.2738558 -295.29455609 1665.31626239 -295.31050456 1566.35866857 C-295.31067235 1565.31696845 -295.31084014 1564.27526834 -295.31101302 1563.20200156 C-295.31626371 1530.6547569 -295.32183807 1498.10751229 -295.32747233 1465.56026769 C-295.33325332 1432.16444645 -295.33898388 1398.76862522 -295.34442866 1365.37280393 C-295.34459647 1364.344523 -295.34476427 1363.31624208 -295.34493717 1362.25680112 C-295.35543066 1297.85475559 -295.36229204 1233.4527105 -295.36529505 1169.05066419 C-295.36534186 1168.05593788 -295.36538868 1167.06121157 -295.36543691 1166.03634205 C-295.36748759 1122.34959288 -295.36873165 1078.66284373 -295.36908296 1034.97609453 C-295.36922623 1017.40056578 -295.36946489 999.82503704 -295.36974702 982.2495083 C-295.36979255 979.33540354 -295.3698342 976.42129877 -295.36987513 973.507194 C-295.37052117 928.93699352 -295.37347782 884.36679483 -295.38333571 839.79659534 C-295.38354808 838.83555082 -295.38376045 837.87450631 -295.38397926 836.88433924 C-295.38740801 821.42491088 -295.39102098 805.96548256 -295.39465566 790.50605424 C-295.40497022 746.6135557 -295.41375003 702.72105936 -295.41181099 658.8285594 C-295.41175289 657.49228378 -295.41175289 657.49228378 -295.4116936 656.12901269 C-295.41081698 636.69220594 -295.4091048 617.25539935 -295.40657398 597.81859275 C-295.40557724 590.0663003 -295.40469058 582.31400783 -295.40383875 574.56171536 C-295.40374287 573.71607803 -295.40364698 572.87044069 -295.40354819 571.99917798 C-295.40056077 545.19206543 -295.40678655 518.38496568 -295.41835762 491.57785575 C-295.42971629 465.17363393 -295.4319458 438.76942924 -295.42095211 412.36520671 C-295.41944607 408.74477221 -295.41804474 405.12433767 -295.41670629 401.50390311 C-295.41644025 400.7951611 -295.4161742 400.0864191 -295.4159001 399.35620007 C-295.41198644 388.2043589 -295.41805226 377.05254714 -295.42844615 365.90071107 C-295.43842289 354.97580326 -295.43741309 344.0509343 -295.4255952 333.12602722 C-295.41961433 327.31573696 -295.41823153 321.50555229 -295.43028006 315.69526905 C-295.51607415 271.49243602 -295.51607415 271.49243602 -292.04622233 252.1276505 C-291.73286092 250.24504338 -291.73286092 250.24504338 -291.41316898 248.32440379 C-290.93926045 245.57308481 -290.39415987 242.85440065 -289.79622233 240.1276505 C-289.5871525 239.15529454 -289.37808268 238.18293859 -289.16267741 237.1811173 C-277.87868066 186.33579522 -254.29711231 138.99026434 -219.15559733 100.4557755 C-217.28946666 98.39612017 -215.47552445 96.30376155 -213.67122233 94.1901505 C-206.74482834 86.25131377 -199.13093283 78.87604521 -191.04622233 72.1276505 C-190.54654948 71.69823155 -190.04687663 71.26881261 -189.53206217 70.82638097 C-172.32767421 56.06345792 -153.23169176 43.43761295 -133.04622233 33.1276505 C-132.1877067 32.68614659 -131.32919108 32.24464269 -130.44465983 31.78975987 C-98.48923769 15.51616527 -64.52363368 5.83637996 -29.04622233 1.1276505 C-28.43327561 1.04207378 -27.82032889 0.95649706 -27.18880803 0.8683271 C-18.1606801 -0.2200408 -9.0771464 -0.01125163 0 0 Z M249.95377767 438.1276505 C249.33792806 438.59477452 248.72207845 439.06189855 248.08756673 439.54317784 C243.98025803 442.66291879 239.94639499 445.86263818 235.95377767 449.1276505 C235.3975472 449.57946691 234.84131673 450.03128331 234.2682308 450.49679112 C225.40182411 457.75851023 217.19877418 465.67740078 209.07877767 473.7526505 C208.59240835 474.23375279 208.10603902 474.71485509 207.60493124 475.21053624 C200.92304617 481.83635409 194.81930038 488.76921602 188.95377767 496.1276505 C187.88174552 497.41031563 186.80543517 498.68942728 185.72330892 499.963588 C176.91561627 510.45011922 169.31902162 521.59300122 161.95377767 533.1276505 C161.32826009 534.09855626 161.32826009 534.09855626 160.6901058 535.08907628 C135.34197776 574.70376338 119.61216675 619.31389238 111.70377767 665.5026505 C111.4770638 666.8176151 111.4770638 666.8176151 111.24576986 668.15914464 C108.36480744 686.0025772 107.54690625 703.76260178 107.57877767 721.8151505 C107.57898916 722.92750066 107.57920064 724.03985082 107.57941854 725.18590856 C107.61516635 744.11547731 108.71096461 762.4722178 111.95377767 781.1276505 C112.23463216 782.75694493 112.23463216 782.75694493 112.52116048 784.41915441 C118.13275303 815.83534999 128.17306932 846.36916849 141.95377767 875.1276505 C142.3467806 875.95603429 142.73978353 876.78441808 143.14469564 877.63790441 C156.45302613 905.54731333 173.82601605 932.47307798 194.95377767 955.1276505 C196.06328473 956.39382406 197.16762296 957.66454899 198.26627767 958.9401505 C208.48473526 970.71234967 208.48473526 970.71234967 219.85221517 981.338588 C221.98474621 983.15401405 224.02761394 985.05031755 226.06950033 986.96651769 C233.02978359 993.47419113 240.34556395 999.39666421 247.95377767 1005.1276505 C248.97084798 1005.89746251 248.97084798 1005.89746251 250.00846517 1006.68282628 C268.50727011 1020.6035158 288.30933215 1031.72069307 308.95377767 1042.1276505 C309.68596517 1042.50373448 310.41815267 1042.87981847 311.17252767 1043.26729894 C351.88742142 1064.11410752 401.47614768 1076.01054529 447.24284017 1076.36593175 C448.8170725 1076.38062253 448.8170725 1076.38062253 450.4231075 1076.39561009 C537.22703636 1077.03829111 620.96677712 1051.95314728 687.95377767 995.1276505 C688.92186361 994.3439005 689.88994955 993.5601505 690.88737142 992.7526505 C699.1343297 985.99604534 706.71670715 978.57979803 714.26627767 971.0651505 C714.7780657 970.55853887 715.28985372 970.05192723 715.81715047 969.52996373 C722.66953862 962.73225511 728.93345177 955.68680759 734.95377767 948.1276505 C736.51327952 946.3125702 738.07511579 944.49948724 739.64127767 942.6901505 C750.38490871 929.80448711 759.66156949 915.69393626 767.95377767 901.1276505 C768.34484701 900.45089269 768.73591634 899.77413487 769.13883626 899.07686925 C785.63053228 870.49561707 798.03775817 840.18938522 805.95377767 808.1276505 C806.18790365 807.18292882 806.42202962 806.23820714 806.66325033 805.26485753 C821.87981991 742.60903251 819.17145719 676.56661307 799.95377767 615.1276505 C799.66309408 614.19114659 799.37241048 613.25464269 799.0729183 612.28975987 C785.3191938 568.72111827 762.17818582 529.09256739 732.95377767 494.1276505 C732.10998554 493.09513285 731.26623707 492.06257951 730.42252767 491.02999425 C719.10675474 477.34897259 706.5415137 463.99365125 692.48502767 453.104213 C690.11210069 451.25127927 687.8514952 449.30326949 685.59147298 447.31539464 C671.36235054 434.89247978 655.29278747 424.54230955 638.95377767 415.1276505 C638.06239095 414.61347569 637.17100423 414.09930089 636.2526058 413.56954503 C595.6040153 390.35074651 551.2452716 376.38960436 504.95377767 370.1276505 C504.11685384 370.00905675 503.27993001 369.890463 502.41764486 369.7682755 C414.64497857 357.81383048 319.87911195 384.40021011 249.95377767 438.1276505 Z M1960.95377767 1202.1276505 C1960.12577657 1202.20026097 1959.29777547 1202.27287145 1958.44468343 1202.34768224 C1883.59867535 1208.94723025 1809.31562752 1225.14304833 1693.95377767 1282.1276505 C1693.10396322 1282.6442423 1692.25414876 1283.16083409 1691.37858236 1283.69308019 C1674.20885074 1294.15620039 1658.15310187 1305.85840679 1642.68912923 1318.69649816 C1641.15217402 1319.96403212 1639.59719601 1321.20964257 1638.03971517 1322.45186925 C1624.98936553 1332.86520134 1613.25960295 1344.72852535 1601.45377767 1356.5026505 C1600.88738576 1357.06636357 1600.32099386 1357.63007665 1599.73743856 1358.21087193 C1593.59100287 1364.33525703 1587.55728032 1370.49508389 1581.95377767 1377.1276505 C1580.96950286 1378.25777958 1579.98385544 1379.38671486 1578.99674642 1380.51436925 C1572.82464294 1387.62931475 1566.9069808 1394.87556595 1561.24869955 1402.40743566 C1559.89229656 1404.20932394 1558.52515744 1406.00271751 1557.15690267 1407.79561925 C1551.35674253 1415.42598335 1545.72885413 1423.17077738 1540.20377767 1431.0026505 C1539.58277181 1431.87735997 1538.96176595 1432.75206944 1538.32194173 1433.65328526 C1537.4668099 1434.87422887 1537.4668099 1434.87422887 1536.59440267 1436.119838 C1535.82918294 1437.20820958 1535.82918294 1437.20820958 1535.04850423 1438.31856847 C1533.78120495 1440.06041388 1533.78120495 1440.06041388 1533.95377767 1442.1276505 C1533.29377767 1442.1276505 1532.63377767 1442.1276505 1531.95377767 1442.1276505 C1531.95654305 1441.38811069 1531.95930843 1440.64857087 1531.96215761 1439.88662076 C1532.02859323 1421.83940859 1532.07814343 1403.79222102 1532.10921419 1385.74491239 C1532.12464158 1377.01714091 1532.14565153 1368.28945138 1532.18009603 1359.56173253 C1532.21012547 1351.94905471 1532.22938263 1344.33643629 1532.23604316 1336.72370088 C1532.23993262 1332.69788441 1532.24898584 1328.67223774 1532.27096784 1324.64647603 C1532.2915478 1320.84617795 1532.29756877 1317.04611731 1532.29310071 1313.24576879 C1532.29430114 1311.20877585 1532.3103294 1309.17180792 1532.32703817 1307.13488317 C1532.25089975 1284.0992461 1524.15367365 1264.18333408 1508.07877767 1247.7526505 C1493.42149031 1233.36889784 1473.35808169 1225.02364738 1452.83330476 1224.99342942 C1452.14851762 1224.99107719 1451.46373048 1224.98872496 1450.75819221 1224.98630145 C1448.47068458 1224.97966098 1446.1832344 1224.98006817 1443.89571798 1224.98047948 C1442.23608484 1224.97717775 1440.5764525 1224.97345154 1438.91682118 1224.969338 C1434.36115064 1224.95934481 1429.80549327 1224.95560553 1425.24981332 1224.95294869 C1420.33406673 1224.94903762 1415.4183305 1224.9394598 1410.50259054 1224.93073583 C1398.63286793 1224.91099328 1386.7631445 1224.90090766 1374.89340958 1224.89200804 C1369.2986057 1224.88762121 1363.70380275 1224.88225539 1358.10899961 1224.87701917 C1339.50143509 1224.86000852 1320.89387116 1224.84551569 1302.28630006 1224.83827043 C1297.45988309 1224.83636065 1292.63346611 1224.8344403 1287.80704916 1224.83248448 C1286.60752089 1224.83200074 1285.40799262 1224.831517 1284.17211501 1224.8310186 C1264.75277867 1224.82272329 1245.33350402 1224.79739404 1225.91419461 1224.76490381 C1205.96012588 1224.7317921 1186.00608846 1224.71381792 1166.05199212 1224.71062618 C1154.85532738 1224.70846482 1143.65875259 1224.69977094 1132.46211469 1224.67416501 C1122.92391801 1224.65240175 1113.38583313 1224.64443518 1103.84761443 1224.65413179 C1098.98663379 1224.65866031 1094.12588357 1224.65687511 1089.2649349 1224.63737035 C1084.80277207 1224.61962149 1080.34100576 1224.62083028 1075.87883804 1224.63626764 C1074.27644472 1224.63862608 1072.67402307 1224.63441337 1071.07167276 1224.62243899 C1057.05261239 1224.52428113 1041.98742033 1225.92883715 1029.51627767 1232.8776505 C1028.86852376 1233.22054112 1028.22076986 1233.56343175 1027.55338705 1233.916713 C1007.00613259 1245.0761733 993.33893809 1262.01645151 986.70377767 1284.3776505 C984.33811227 1292.79321431 983.80797351 1300.50880924 983.82612717 1309.19940394 C983.82447639 1310.31328 983.82282561 1311.42715607 983.82112481 1312.57478595 C983.81679066 1316.32933033 983.81960403 1320.08383565 983.82234991 1323.83838105 C983.8212554 1326.56015072 983.81865563 1329.2819185 983.8161298 1332.00368717 C983.81141541 1337.95144811 983.81043176 1343.89920072 983.81185815 1349.84696322 C983.81397783 1358.75113096 983.81036799 1367.65529008 983.80564337 1376.55945649 C983.79776595 1391.73402565 983.79468113 1406.90859246 983.79419744 1422.0831635 C983.79369531 1437.4656472 983.79105107 1452.84812826 983.78578985 1468.23061109 C983.78545971 1469.20144994 983.78512958 1470.1722888 983.78478944 1471.17254702 C983.78343947 1475.1265078 983.7820768 1479.08046857 983.78069734 1483.03442934 C983.76438786 1529.86541808 983.75800788 1576.69640633 983.75324947 1623.52739743 C983.750867 1646.84306213 983.74716367 1670.15872654 983.74321237 1693.47439101 C983.73054741 1768.24849484 983.71976346 1843.02259864 983.71637191 1917.79670352 C983.71620967 1921.37110317 983.71604411 1924.94550283 983.71587753 1928.51990248 C983.71554373 1935.68851955 983.71521325 1942.85713661 983.71488297 1950.02575368 C983.71449607 1958.41861513 983.71410646 1966.81147659 983.71371191 1975.20433804 C983.71359949 1977.6064509 983.71348807 1980.00856375 983.71337765 1982.41067661 C983.70982787 2059.56564037 983.69474832 2136.72059481 983.67143991 2213.87555502 C983.65469993 2269.31030253 983.63922393 2324.74504829 983.63470495 2380.17979836 C983.63461146 2381.31967021 983.63451798 2382.45954205 983.63442166 2383.63395547 C983.63240267 2408.65621136 983.63124658 2433.67846723 983.63089307 2458.70072321 C983.6307569 2467.65408535 983.6305479 2476.6074475 983.63029982 2485.56080965 C983.63023826 2487.78821963 983.63017994 2490.01562962 983.63012487 2492.24303961 C983.62920481 2527.74529912 983.61923365 2563.24754892 983.60466738 2598.74980524 C983.59005542 2634.50650223 983.58500707 2670.26318729 983.59308693 2706.01988673 C983.59420231 2710.96061792 983.59521297 2715.90134913 983.59616125 2720.84208035 C983.59635121 2721.81060205 983.59654118 2722.77912375 983.59673691 2723.77699459 C983.59947087 2739.11446503 983.59212756 2754.45191343 983.58058788 2769.78937908 C983.56945103 2784.86992095 983.56901189 2799.95043165 983.57995806 2815.030974 C983.5860549 2823.87247682 983.58395869 2832.71388559 983.56970609 2841.55537955 C983.56105671 2847.43056062 983.56332991 2853.30567262 983.5744048 2859.18084945 C983.58037568 2862.50933015 983.58011365 2865.83747721 983.56971994 2869.16596894 C983.48546983 2898.04444973 987.71212914 2921.41684328 1008.32877767 2943.0026505 C1013.43245745 2947.89990529 1018.78367856 2951.69581435 1024.95377767 2955.1276505 C1025.76459798 2955.58784581 1026.5754183 2956.04804112 1027.41080892 2956.52218175 C1037.86674432 2962.11332006 1049.16426393 2965.24460774 1061.01646554 2965.26187158 C1062.05249513 2965.26539992 1062.05249513 2965.26539992 1063.1094546 2965.26899955 C1065.42304151 2965.27565462 1067.7365718 2965.27523238 1070.05016744 2965.27482152 C1071.72614941 2965.27812234 1073.40213059 2965.28184836 1075.07811075 2965.285963 C1079.68357754 2965.29596661 1084.2890313 2965.29969716 1088.89450741 2965.30235231 C1093.86205929 2965.3062603 1098.82960089 2965.31583839 1103.7971462 2965.32456517 C1115.79483144 2965.34431698 1127.7925175 2965.35439478 1139.79021493 2965.36329296 C1145.44392552 2965.36767851 1151.09763518 2965.37304468 1156.75134504 2965.37828183 C1175.55274197 2965.39529384 1194.35413833 2965.40978675 1213.15554178 2965.41703057 C1218.03335544 2965.41894039 1222.9111691 2965.42086073 1227.78898275 2965.42281651 C1229.60746056 2965.42354213 1229.60746056 2965.42354213 1231.4626753 2965.42428239 C1251.08967931 2965.43257794 1270.71662228 2965.45790696 1290.34359965 2965.49039719 C1310.50668418 2965.52350196 1330.66973772 2965.54148248 1350.83284956 2965.54467481 C1362.14854547 2965.54683688 1373.46415239 2965.55554106 1384.77982175 2965.58113599 C1394.41944687 2965.60288979 1404.05896138 2965.61087046 1413.69860826 2965.60116921 C1418.61211402 2965.59663789 1423.52539182 2965.59844239 1428.43886602 2965.61793065 C1432.94789255 2965.63565931 1437.45652645 2965.6344867 1441.96555772 2965.61903336 C1443.58613254 2965.6166719 1445.20673526 2965.6209038 1446.82726768 2965.63286201 C1460.76649519 2965.72924847 1475.01924524 2964.13171255 1487.45377767 2957.3151505 C1488.10974935 2956.97185704 1488.76572103 2956.62856359 1489.44157064 2956.2748673 C1494.73554073 2953.4274424 1499.41465557 2950.06874571 1503.95377767 2946.1276505 C1505.46971517 2944.982963 1505.46971517 2944.982963 1507.01627767 2943.8151505 C1520.84295313 2931.16521338 1529.32736349 2913.55975688 1531.95377767 2895.1276505 C1532.04024751 2893.05359047 1532.07868713 2890.97717875 1532.07863486 2888.901317 C1532.08223424 2887.04305643 1532.08223424 2887.04305643 1532.08590633 2885.14725524 C1532.0835163 2883.77781086 1532.08103632 2882.40836663 1532.07847631 2881.03892255 C1532.07940713 2879.57395522 1532.08077827 2878.10898812 1532.08254975 2876.64402157 C1532.08616658 2872.60417651 1532.08355346 2868.56435546 1532.07997626 2864.52451124 C1532.07720328 2860.13423597 1532.08026413 2855.74396428 1532.0826236 2851.35368931 C1532.08597939 2843.65350486 1532.08569707 2835.95332723 1532.0830673 2828.2531426 C1532.07920557 2816.80105894 1532.08113293 2805.34898151 1532.08448146 2793.89689794 C1532.08971128 2775.80671062 1532.0917691 2757.71652478 1532.09184634 2739.62633677 C1532.09209749 2710.87535334 1532.10378037 2682.12438267 1532.11945691 2653.37340391 C1532.12278152 2647.25223358 1532.12600334 2641.1310632 1532.12923777 2635.00989282 C1532.13317422 2627.57748956 1532.13712078 2620.1450863 1532.14109899 2612.71268306 C1532.156078 2584.67050487 1532.16969067 2556.62832617 1532.18180501 2528.58614659 C1532.18236318 2527.30451987 1532.18292134 2526.02289315 1532.18349641 2524.70242926 C1532.20146503 2483.21355667 1532.20582266 2441.72469451 1532.20410599 2400.23581854 C1532.20243343 2357.55425629 1532.2174152 2314.87272838 1532.25203083 2272.19117951 C1532.25691572 2266.15078613 1532.26159757 2260.11039262 1532.26614797 2254.06999898 C1532.26704751 2252.88129919 1532.26794704 2251.6925994 1532.26887383 2250.4678784 C1532.28278692 2231.4052163 1532.27911684 2212.34259693 1532.26853605 2193.27993436 C1532.2582159 2174.07734886 1532.266048 2154.87483773 1532.29195377 2135.67226638 C1532.30675328 2124.29170924 1532.30796653 2112.91134908 1532.28881508 2101.53079739 C1532.27735859 2093.89398206 1532.28452264 2086.2573193 1532.30576232 2078.62052559 C1532.31729751 2074.29153803 1532.32174392 2069.96293589 1532.30308571 2065.6339642 C1532.00141409 1990.14232106 1549.76702164 1911.74354795 1580.95377767 1843.1276505 C1581.32470541 1842.30071691 1581.69563314 1841.47378331 1582.07780111 1840.62179112 C1596.20081851 1809.22884859 1615.2665482 1780.92866414 1637.95377767 1755.1276505 C1638.4081722 1754.60864171 1638.86256673 1754.08963292 1639.3307308 1753.55489659 C1643.93557504 1748.31425831 1648.58459469 1743.32691631 1653.93424642 1738.84249425 C1655.32312839 1737.66315347 1656.67886032 1736.44400115 1658.00455892 1735.19405675 C1706.54810859 1689.50107821 1774.54542686 1670.84968858 1839.82877767 1670.9401505 C1841.04482687 1670.94105687 1841.04482687 1670.94105687 1842.28544271 1670.94198155 C1913.50948877 1671.08538802 1978.68143741 1691.93900226 2030.95377767 1741.1276505 C2031.61248861 1741.74382237 2032.27119955 1742.35999425 2032.94987142 1742.994838 C2038.09922299 1747.96580556 2042.5126193 1753.52697788 2046.95377767 1759.1276505 C2048.14680501 1760.6126505 2048.14680501 1760.6126505 2049.36393392 1762.1276505 C2098.07156509 1823.88059018 2115.4275008 1904.45735686 2122.95377767 1981.1276505 C2123.0246244 1981.84200679 2123.09547113 1982.55636308 2123.16846474 1983.29236653 C2127.01527131 2022.65613461 2126.37838533 2062.21142433 2126.33132822 2101.71293125 C2126.3194265 2112.26058951 2126.32550964 2122.80822077 2126.33210096 2133.35588099 C2126.34385949 2152.81481914 2126.34248105 2172.27373409 2126.33390272 2191.73267293 C2126.32241427 2218.29801594 2126.33168807 2244.86332458 2126.34646452 2271.42866452 C2126.35335248 2283.8399718 2126.35929634 2296.25127954 2126.36504114 2308.6625874 C2126.36561788 2309.90436477 2126.36619462 2311.14614214 2126.36678883 2312.42554913 C2126.38027698 2341.89363146 2126.3848955 2371.36171389 2126.38761556 2400.82979894 C2126.38780028 2402.76077401 2126.38780028 2402.76077401 2126.38798874 2404.73075868 C2126.39070693 2433.49643545 2126.39161579 2462.26211197 2126.39056508 2491.02778884 C2126.39014016 2502.79740418 2126.3898327 2514.56701953 2126.38956869 2526.33663487 C2126.38953591 2527.62779295 2126.38950313 2528.91895102 2126.38946937 2530.24923509 C2126.38878357 2559.73166246 2126.39138968 2589.21408339 2126.40572107 2618.69650769 C2126.40632274 2619.93547513 2126.40692441 2621.17444257 2126.40754431 2622.45095448 C2126.41364156 2634.81903996 2126.42040872 2647.18712492 2126.42812984 2659.5552095 C2126.44459027 2686.09858193 2126.45064122 2712.64189628 2126.43529049 2739.18527058 C2126.42431278 2758.50923382 2126.42719839 2777.83315281 2126.44448154 2797.15711187 C2126.45427321 2808.63197489 2126.45281843 2820.10670996 2126.43533904 2831.58156451 C2126.42474684 2839.24794076 2126.42864746 2846.91422173 2126.44424247 2854.5805892 C2126.45270185 2858.94624595 2126.45490417 2863.31165259 2126.43932646 2867.67729537 C2126.42524796 2871.65568881 2126.42985963 2875.63362426 2126.44880235 2879.61199352 C2126.45240203 2881.03517501 2126.44944153 2882.4583939 2126.43875442 2883.88153981 C2126.34884147 2896.73659249 2128.59792753 2908.93403047 2134.70377767 2920.3776505 C2135.21702596 2921.36849645 2135.21702596 2921.36849645 2135.74064291 2922.37935948 C2145.54439677 2940.81991365 2160.43249636 2953.77975287 2179.95377767 2961.1276505 C2191.67242702 2964.62820157 2202.6696246 2965.70584519 2214.84872091 2965.62885594 C2216.58583591 2965.63275932 2218.3229477 2965.63840801 2220.0600521 2965.64562684 C2224.7833919 2965.66025015 2229.50639385 2965.65027931 2234.22972226 2965.63589013 C2239.34291102 2965.62470903 2244.45605511 2965.63674627 2249.56924093 2965.64573216 C2259.56534499 2965.65961742 2269.56132215 2965.65214381 2279.5574201 2965.63705658 C2291.21081585 2965.62014154 2302.86418048 2965.62341358 2314.51758472 2965.62715066 C2335.31527029 2965.63302041 2356.11289519 2965.61889142 2376.91056478 2965.59420323 C2397.06976759 2965.57027582 2417.22888938 2965.56320374 2437.38810384 2965.57369542 C2459.37011294 2965.58511535 2481.35208462 2965.58702212 2503.33409327 2965.57259732 C2505.6797316 2965.57107157 2508.02536994 2965.56955121 2510.37100828 2965.56803632 C2511.52494983 2965.5672785 2512.67889138 2965.56652069 2513.86780086 2965.56573991 C2521.98216582 2965.56100613 2530.09651403 2965.56284202 2538.21087873 2965.56710172 C2548.10321547 2965.57203799 2557.99547577 2965.56600089 2567.88779505 2965.54620742 C2572.93057281 2965.53636445 2577.97323439 2965.53119792 2583.01601827 2965.53909993 C2587.6391339 2965.54619593 2592.26201588 2965.53926119 2596.88510088 2965.5214963 C2598.55037145 2965.51747716 2600.2156636 2965.51840866 2601.88092592 2965.52501517 C2625.61110108 2965.6110441 2646.93079644 2958.80860007 2664.20377767 2941.932338 C2682.30781578 2923.4682764 2688.12496551 2901.55327906 2688.07961881 2876.1950686 C2688.08066281 2874.77164472 2688.0821447 2873.34822112 2688.08402318 2871.9247981 C2688.08791803 2868.00948038 2688.08558673 2864.09418732 2688.08224523 2860.17887 C2688.07970951 2855.91979694 2688.08296815 2851.66072767 2688.08548856 2847.40165514 C2688.08910283 2839.93430579 2688.08898907 2832.46696368 2688.0864414 2824.999614 C2688.08266238 2813.89266091 2688.08459115 2802.78571394 2688.0876497 2791.67876089 C2688.0929222 2771.82788334 2688.0924557 2751.977009 2688.08957079 2732.12613114 C2688.08705396 2714.72108597 2688.08639908 2697.31604198 2688.08759344 2679.91099668 C2688.08766982 2678.75586791 2688.08774621 2677.60073914 2688.08782491 2676.41060647 C2688.08813627 2671.7208268 2688.08845467 2667.03104713 2688.08878467 2662.34126746 C2688.09184662 2618.2989177 2688.08906748 2574.25656998 2688.08368777 2530.21422054 C2688.07895855 2491.20172018 2688.07935239 2452.18922309 2688.08414876 2413.17672276 C2688.08952589 2369.29427078 2688.09161282 2325.41182061 2688.0885365 2281.52936834 C2688.08821584 2276.83175886 2688.08790299 2272.13414937 2688.08759344 2267.43653989 C2688.08751436 2266.27997829 2688.08743528 2265.12341669 2688.08735381 2263.93180778 C2688.0862239 2246.58695037 2688.08753271 2229.24209428 2688.09007299 2211.89723706 C2688.09295774 2192.10232476 2688.09216482 2172.30741617 2688.08679225 2152.51250432 C2688.08414666 2142.43728902 2688.08297977 2132.36207974 2688.0864414 2122.28686452 C2688.11576183 2030.96581252 2687.52849382 1939.551688 2549.95377767 1428.1276505 C2549.25454183 1427.11178868 2549.25454183 1427.11178868 2548.54118001 1426.07540441 C2541.6858109 1416.14358957 2534.53647229 1406.51490888 2526.95377767 1397.1276505 C2526.20612142 1396.19694737 2525.45846517 1395.26624425 2524.68815267 1394.307338 C2513.15663312 1379.99480827 2513.15663312 1379.99480827 2500.51237142 1366.682338 C2498.81179457 1364.98602324 2497.26291067 1363.20458752 2495.70377767 1361.3776505 C2489.38354774 1354.0632271 2482.44695371 1347.25418993 2475.09049642 1340.9870255 C2472.95976231 1339.13285834 2470.89675259 1337.21574587 2468.83585775 1335.28463292 C2462.46357177 1329.33558318 2455.78559324 1323.92305349 2448.87272298 1318.61837316 C2446.88748677 1317.07615276 2444.93099879 1315.50245616 2442.97721517 1313.92061925 C2425.20299302 1299.6355106 2405.83599857 1287.26984919 2385.95377767 1276.1276505 C2385.13554525 1275.66584386 2384.31731283 1275.20403722 2383.47428548 1274.72823644 C2340.4410113 1250.52699857 2294.65761618 1233.42674026 2246.95377767 1221.1276505 C2245.6771224 1220.79781163 2244.40046712 1220.46797276 2243.08512533 1220.12813878 C2204.39230712 1210.29167882 2164.87350035 1204.79647276 2125.14127767 1201.4401505 C2124.42049032 1201.37912145 2123.69970296 1201.31809239 2122.95707357 1201.25521398 C2117.95862449 1200.83807846 2112.9579362 1200.4690721 2107.95377767 1200.1276505 C2107.26240713 1200.07852513 2106.57103658 1200.02939977 2105.85871542 1199.97878575 C2087.52803224 1198.71926257 2069.13068757 1198.88339918 2050.76627767 1198.8776505 C2049.90414285 1198.87706136 2049.04200803 1198.87647222 2048.15374792 1198.87586522 C2018.98947207 1198.86182305 1990.0194521 1199.52474388 1960.95377767 1202.1276505 Z M206.20377767 1258.3776505 C193.45816093 1274.6791096 187.7841087 1293.56381421 187.8249765 1314.13939434 C187.82320149 1315.2467721 187.82142648 1316.35414985 187.81959769 1317.49508451 C187.81484473 1321.22748124 187.81723385 1324.95983954 187.81955659 1328.69223809 C187.8176041 1331.39805403 187.81525621 1334.10386702 187.81242862 1336.80968192 C187.807055 1342.72246059 187.80541158 1348.63523131 187.80617937 1354.54801223 C187.8073145 1363.39984075 187.80273462 1372.25166001 187.79704853 1381.10348645 C187.78753466 1396.18894678 187.7828291 1411.27440525 187.78073919 1426.35986829 C187.77861133 1441.65205071 187.77435298 1456.94423027 187.76749647 1472.23641133 C187.76706585 1473.20155976 187.76663524 1474.16670819 187.76619158 1475.16110354 C187.76443324 1479.09189452 187.7626636 1483.0226855 187.76087856 1486.95347647 C187.73927503 1534.61877262 187.7283993 1582.28406933 187.71940232 1629.94936926 C187.71646868 1645.40520126 187.71309883 1660.86103312 187.70943511 1676.31686497 C187.70917681 1677.40711571 187.70891852 1678.49736645 187.70865241 1679.6206551 C187.70760619 1684.03137241 187.70655776 1688.44208972 187.70550658 1692.85280703 C187.68754163 1768.29963544 187.67216229 1843.74646406 187.66474755 1919.1932943 C187.66416358 1925.12000253 187.66356631 1931.04671076 187.66296994 1936.97341899 C187.66285182 1938.14909434 187.6627337 1939.32476969 187.662612 1940.53607156 C187.6614146 1952.44739272 187.66020584 1964.35871389 187.65897946 1976.27003505 C187.65873423 1978.65829702 187.65849037 1981.04655899 187.6582479 1983.43482096 C187.65045792 2060.13944005 187.62807413 2136.84404384 187.59557147 2213.54865625 C187.57222672 2268.65964886 187.55067452 2323.77063843 187.54356515 2378.8816359 C187.54341813 2380.01495728 187.54327111 2381.14827865 187.54311964 2382.31594309 C187.53993485 2407.1949782 187.53788393 2432.07401327 187.53689209 2456.95304856 C187.53647735 2466.96334869 187.53592245 2476.97364882 187.53533018 2486.98394895 C187.53526951 2488.07951638 187.53520884 2489.17508382 187.53514633 2490.30385027 C187.53313016 2525.59767418 187.51889036 2560.89148004 187.49838517 2596.18529765 C187.47780465 2631.73485496 187.46990991 2667.28439139 187.47946294 2702.83395406 C187.48078138 2707.74712868 187.48195943 2712.66030332 187.48305357 2717.57347798 C187.48327341 2718.53658974 187.48349326 2719.49970149 187.48371977 2720.49199844 C187.48683327 2735.73794236 187.47651078 2750.98384634 187.46057802 2766.229781 C187.44518743 2781.2238499 187.44407993 2796.2178636 187.45812625 2811.21193442 C187.46593157 2820.0004506 187.46283695 2828.78879801 187.44348909 2837.57729729 C187.4317243 2843.41993742 187.43456942 2849.26245469 187.44910373 2855.10508823 C187.45693025 2858.41349896 187.45649559 2861.72131357 187.4424847 2865.02974277 C187.37467 2882.16105954 187.65517905 2899.38347535 195.64127767 2915.0026505 C195.98376546 2915.69697179 196.32625326 2916.39129308 196.67911947 2917.10665441 C207.36537067 2938.04406854 225.64205239 2953.25813427 247.5207004 2961.37666667 C258.80820789 2964.86062328 269.90149953 2965.56369842 281.62115133 2965.50860143 C283.24929398 2965.51206667 284.87743428 2965.516837 286.50556976 2965.52278316 C290.93693617 2965.53520375 295.36810655 2965.52916398 299.79947329 2965.5198245 C304.59503618 2965.5129974 309.39056689 2965.52353324 314.18612325 2965.53176427 C323.56351441 2965.54506464 332.94083331 2965.54224048 342.31822724 2965.53352635 C349.94266006 2965.52673602 357.56707271 2965.5258389 365.1915077 2965.5290978 C366.27892556 2965.52955749 367.36634342 2965.53001719 368.48671333 2965.53049082 C370.69614809 2965.53145005 372.90558284 2965.53242269 375.11501759 2965.5334086 C395.80504966 2965.54195156 416.49504177 2965.53214533 437.18506729 2965.5160075 C454.91894452 2965.50260343 472.65276283 2965.50493528 490.386639 2965.51876378 C511.00697234 2965.53483567 531.62727071 2965.54112967 552.24760944 2965.53192699 C554.44836076 2965.53097139 556.64911208 2965.53002828 558.84986341 2965.5290978 C559.93252807 2965.52863497 561.01519273 2965.52817214 562.13066541 2965.52769529 C569.74206625 2965.52511037 577.35344481 2965.5294656 584.9648422 2965.53653646 C594.24604107 2965.54496946 603.52716387 2965.54263345 612.80835409 2965.52669422 C617.53923278 2965.51883601 622.26998486 2965.51567796 627.00086248 2965.52564168 C631.33909292 2965.53463995 635.67708044 2965.52957202 640.01528912 2965.51370902 C641.57698827 2965.51038283 643.13870832 2965.512006 644.7003938 2965.51933639 C670.76365819 2965.63220379 692.86349228 2956.76788623 711.64127767 2938.7526505 C728.41595265 2921.41881969 736.13159404 2898.95530611 736.08142817 2875.13925344 C736.08307895 2874.03440493 736.08472973 2872.92955642 736.08643053 2871.79122766 C736.09076437 2868.06745424 736.08795141 2864.34372021 736.08520544 2860.61994576 C736.08685465 2857.92034633 736.08889974 2855.22074982 736.09142554 2852.52115133 C736.09613978 2846.62201545 736.09712362 2840.72288796 736.09569719 2834.8237505 C736.09357745 2825.99237644 736.09718744 2817.16101107 736.10191197 2808.32963835 C736.10978927 2793.27909803 736.11287421 2778.22856008 736.1133579 2763.17801785 C736.11386003 2747.92131362 736.11650433 2732.66461204 736.12176549 2717.40790868 C736.12209563 2716.44499905 736.12242576 2715.48208943 736.1227659 2714.49000072 C736.12411587 2710.56833173 736.12547854 2706.64666275 736.126858 2702.72499377 C736.14316738 2656.27676468 736.14954745 2609.82853609 736.15430587 2563.38030462 C736.15668836 2540.25513235 736.16039168 2517.12996037 736.16434297 2494.00478833 C736.17700793 2419.84132085 736.18779188 2345.6778534 736.19118343 2271.51438486 C736.19134567 2267.96918417 736.19151123 2264.42398348 736.19167781 2260.87878279 C736.19201161 2253.76872743 736.1923421 2246.65867207 736.19267237 2239.54861671 C736.19305927 2231.22432084 736.19344888 2222.90002498 736.19384344 2214.57572911 C736.19395586 2212.19324049 736.19406727 2209.81075187 736.19417769 2207.42826325 C736.19772746 2130.90383112 736.21280698 2054.37940837 736.23611543 1977.85497982 C736.25285547 1922.87317204 736.26833144 1867.89136603 736.27285039 1812.90955567 C736.27294388 1811.77899097 736.27303737 1810.64842626 736.27313368 1809.48360202 C736.27515267 1784.66562155 736.27630877 1759.8476411 736.27666227 1735.02966055 C736.27679845 1726.14938466 736.27700744 1717.26910876 736.27725552 1708.38883287 C736.27731708 1706.17960606 736.2773754 1703.97037925 736.27743047 1701.76115244 C736.27835052 1666.54908703 736.28832156 1631.33703142 736.30288796 1596.12496923 C736.31750011 1560.66040702 736.32254816 1525.19585684 736.31446842 1489.73129216 C736.31335303 1484.83086208 736.31234237 1479.93043199 736.3113941 1475.03000188 C736.31120413 1474.06938087 736.31101416 1473.10875986 736.31081844 1472.11902912 C736.30808453 1456.90704061 736.31542758 1441.69507432 736.32696746 1426.48309065 C736.33810466 1411.5257105 736.3385431 1396.56836178 736.32759728 1381.61098115 C736.32150073 1372.84183138 736.32359588 1364.07277643 736.33784925 1355.30363559 C736.3464993 1349.47636693 736.34422465 1343.64916792 736.33315054 1337.82190354 C736.32718025 1334.52067219 736.32744047 1331.21977718 736.3378354 1327.91853471 C736.42504492 1298.27358512 731.61800581 1271.82865013 710.04362142 1250.06124425 C693.90133378 1234.44473109 672.62825267 1225.02021145 650.04636133 1224.99622273 C649.38461222 1224.9941701 648.72286312 1224.99211747 648.04106101 1224.99000263 C645.8319396 1224.9843651 643.62288117 1224.98578584 641.41375387 1224.9872086 C639.8104427 1224.98462309 638.20713217 1224.98160941 636.60382253 1224.9782052 C632.20391077 1224.97015359 627.80401534 1224.96834666 623.40409708 1224.96760774 C618.6560807 1224.96575394 613.90807274 1224.95820488 609.16006124 1224.95147252 C598.77956838 1224.93790097 588.39907938 1224.9318661 578.01857913 1224.92746186 C571.53294214 1224.92469702 565.04730664 1224.92045918 558.56167066 1224.91595769 C540.59404663 1224.90376575 522.62642379 1224.89346681 504.65879571 1224.8900826 C503.50919817 1224.88986303 502.35960062 1224.88964347 501.17516678 1224.88941725 C499.44670828 1224.88908983 499.44670828 1224.88908983 497.68333143 1224.8887558 C495.34843135 1224.88831234 493.01353127 1224.88786577 490.67863119 1224.88741612 C489.5204469 1224.88719469 488.36226262 1224.88697326 487.16898184 1224.88674513 C468.41435816 1224.88279955 449.65977339 1224.86535251 430.90516473 1224.8420566 C411.63589286 1224.81831528 392.36664048 1224.80587945 373.09735376 1224.80471468 C362.28418483 1224.8037994 351.47106659 1224.79808421 340.65791166 1224.77989507 C331.4475854 1224.76445642 322.23732549 1224.75939572 313.02698875 1224.76763317 C308.33236521 1224.77152658 303.63787511 1224.77067445 298.94326818 1224.75657582 C294.63546494 1224.74375783 290.32789434 1224.74510298 286.02009105 1224.75716653 C284.47157139 1224.75910998 282.9230348 1224.75610862 281.37453885 1224.74732217 C251.21314427 1224.58718156 226.09596494 1235.45394839 206.20377767 1258.3776505 Z " fill="#000000" transform="translate(295.0462223291397,-0.12765049934387207)"/>
</svg>
